<svg xmlns="http://www.w3.org/2000/svg" width="10.868" height="12.057" viewBox="0 0 10.868 12.057">
  <defs>
    <style>
      .cls-1 {
        fill: #a1a6bd;
      }
    </style>
  </defs>
  <g id="FSAOhG.tif_2_" transform="translate(10.768 12.057) rotate(180)">
    <g id="Group_93" data-name="Group 93" transform="translate(-0.1 0)">
      <g id="Group_92" data-name="Group 92">
        <path id="Path_91" data-name="Path 91" class="cls-1" d="M-.033,12.28H1.173V14.29c0,.723.335,1.045.871,1.045h6.7c.536,0,.871-.4.871-1.045V12.2h1.139a16.5,16.5,0,0,1-.067,2.572,1.845,1.845,0,0,1-1.809,2.09h-6.9A2.224,2.224,0,0,1-.033,14.852s0-.08-.067-.08C-.033,13.888-.033,13.084-.033,12.28Z" transform="translate(0.1 -4.805)"/>
        <path id="Path_92" data-name="Path 92" class="cls-1" d="M8.094,2.492V10.61c0,.563-.4.884-.884.723a.683.683,0,0,1-.563-.563V2.492l-.241.241L5.2,3.939a.687.687,0,0,1-1.045,0,.845.845,0,0,1,0-1.045L6.808.241a.687.687,0,0,1,1.045,0l2.652,2.652a.687.687,0,0,1,0,1.045.687.687,0,0,1-1.045,0L8.255,2.733C8.255,2.652,8.175,2.572,8.094,2.492Z" transform="translate(-1.835 0)"/>
      </g>
    </g>
  </g>
</svg>
