<svg xmlns="http://www.w3.org/2000/svg" id="rf0gol.tif_1_" viewBox="0 0 18 18">
    <defs>
        <style>
            .cls-1{fill:#a1a6bd}
        </style>
    </defs>
    <g id="Group_53" data-name="Group 53">
        <path id="Path_44" d="M0 9.5V8a9.588 9.588 0 0 1 2.3-5A9.393 9.393 0 0 1 7.4.1c.4 0 .7-.1 1.1-.1h1.2a8.94 8.94 0 0 1 8.2 7.4 3.4 3.4 0 0 1 .1 1v1.5a9.157 9.157 0 0 1-2.3 5.1 9.393 9.393 0 0 1-5.1 2.9 3.4 3.4 0 0 1-1 .1H8.4a8.94 8.94 0 0 1-8.2-7.4A4.253 4.253 0 0 1 0 9.5zm9-5.6H5.5a1.948 1.948 0 0 0-1.6 2v6.6a1.948 1.948 0 0 0 2 1.6h6.6a1.948 1.948 0 0 0 1.6-2V6a1.268 1.268 0 0 0-.1-.6A1.883 1.883 0 0 0 12 4c-1-.1-2-.1-3-.1z" class="cls-1" data-name="Path 44"/>
        <path id="Path_45" d="M6.4 8a2.721 2.721 0 0 0 1 3.3 2.9 2.9 0 0 0 3.1.2A2.83 2.83 0 0 0 11.7 8h1.5v4.1a1 1 0 0 1-1.1 1.1H6a1 1 0 0 1-1.1-1.1V8z" class="cls-1" data-name="Path 45"/>
        <path id="Path_46" d="M9 10.8A1.8 1.8 0 1 1 10.8 9 1.793 1.793 0 0 1 9 10.8z" class="cls-1" data-name="Path 46"/>
        <path id="Path_47" d="M12.9 6.8h-1.7V5.1h1.7z" class="cls-1" data-name="Path 47"/>
    </g>
</svg>
