<svg xmlns="http://www.w3.org/2000/svg" id="usZvYE.tif_1_" viewBox="0 0 18 18.002">
    <defs>
        <style>
            .cls-1{fill:#a1a6bd}
        </style>
    </defs>
    <g id="Group_44" data-name="Group 44">
        <path id="Path_41" d="M0 9a9 9 0 1 1 18 .1A8.9 8.9 0 0 1 8.9 18 9.006 9.006 0 0 1 0 9zm9.9 4.2V9.8a1.231 1.231 0 0 1 .5-1 1.02 1.02 0 0 1 1.6.5v3.9h2V9.6a5.019 5.019 0 0 0-.2-1.2 1.919 1.919 0 0 0-1.7-1.5 2.043 2.043 0 0 0-2.2.8l-.1.1V7h-2v6.1a14.769 14.769 0 0 0 2.1.1zM4.7 7.1v6.1h2V7.1zm1-.8a1.011 1.011 0 0 0 1.1-.8 1.146 1.146 0 0 0-.7-1.3 1.237 1.237 0 0 0-1.5.6 1.1 1.1 0 0 0 1.1 1.5z" class="cls-1" data-name="Path 41"/>
    </g>
</svg>
