<svg xmlns="http://www.w3.org/2000/svg" viewBox="0 0 18 18">
  <defs>
    <style>
      .cls-1 {
        fill: #a1a6bd;
      }
    </style>
  </defs>
  <path id="Path_135" data-name="Path 135" class="cls-1" d="M9,0a9,9,0,1,0,9,9A8.963,8.963,0,0,0,9,0ZM6.9,9a.6.6,0,0,1-.1.4l3.6,2.3a1.268,1.268,0,0,1,.9-.4,1.2,1.2,0,1,1-1.2,1.2.6.6,0,0,1,.1-.4L6.6,9.8a1.268,1.268,0,0,1-.9.4A1.155,1.155,0,0,1,4.5,9,1.155,1.155,0,0,1,5.7,7.8a1.222,1.222,0,0,1,.9.4l3.6-2.3c0-.1-.1-.3-.1-.4a1.2,1.2,0,1,1,2.4,0,1.155,1.155,0,0,1-1.2,1.2,1.222,1.222,0,0,1-.9-.4L6.9,8.6Z"/>
</svg>
