<svg xmlns="http://www.w3.org/2000/svg" viewBox="0 0 17.889 18.081">
    <defs>
        <style>
            .cls-1{fill:#a1a6bd}
        </style>
    </defs>
    <g id="mvB3cd.tif_1_" transform="translate(-.111)">
        <g id="Group_43" data-name="Group 43">
            <path id="Path_40" d="M8.5 0h1.2c.4.1.9.1 1.3.2a9.038 9.038 0 0 1 2.7 1.1 8.83 8.83 0 0 1 2.6 2.5 8.269 8.269 0 0 1 1.6 4c0 .2.1.4.1.7v1.2c-.1.5-.1.9-.2 1.4a9.259 9.259 0 0 1-3 4.9 8.389 8.389 0 0 1-3.9 1.9 9.921 9.921 0 0 1-4.2-.1A8.587 8.587 0 0 1 2.3 15a8.911 8.911 0 0 1-2-4 9.72 9.72 0 0 1 0-3.8 8.911 8.911 0 0 1 2-4 11.2 11.2 0 0 1 2-1.7A9.174 9.174 0 0 1 7.9.2a.845.845 0 0 1 .6-.2zm-4 12.8l.1.1a4.793 4.793 0 0 0 2 .7 6.12 6.12 0 0 0 4.2-.7 5.463 5.463 0 0 0 1.9-1.8 6.626 6.626 0 0 0 1.1-3.6c0-.1 0-.2.1-.2a4.62 4.62 0 0 0 .7-.7l.2-.2c-.1 0-.3.1-.4.1s-.2.1-.4.1a.367.367 0 0 0-.3.1c.5-.5.8-.9.8-1.1-.1 0-.1 0-.1.1-.3.1-.7.3-1 .4-.1 0-.1 0-.2-.1a1.974 1.974 0 0 0-1.4-.6 2.22 2.22 0 0 0-2.2 2.2V8a6.567 6.567 0 0 1-4.4-2.3 2.016 2.016 0 0 0-.3 1.1 1.965 1.965 0 0 0 .9 1.7 2.92 2.92 0 0 1-.9-.2 2.252 2.252 0 0 0 1.6 2.1h-.9a2.271 2.271 0 0 0 2 1.5 5.09 5.09 0 0 1-3.1.9z" class="cls-1" data-name="Path 40"/>
        </g>
    </g>
</svg>
