<svg xmlns="http://www.w3.org/2000/svg" viewBox="0 0 13.521 15">
    <defs>
        <style>
            .cls-1{fill:#fff}
        </style>
    </defs>
    <g id="FSAOhG.tif_2_" transform="translate(.1)">
        <g id="Group_93" data-name="Group 93" transform="translate(-.1)">
            <g id="Group_92" data-name="Group 92">
                <path id="Path_91" d="M-.017 12.3h1.5v2.5c0 .9.417 1.3 1.083 1.3H10.9c.667 0 1.083-.5 1.083-1.3v-2.6H13.4a20.532 20.532 0 0 1-.083 3.2 2.3 2.3 0 0 1-2.25 2.6H2.483a2.767 2.767 0 0 1-2.5-2.5s0-.1-.083-.1c.083-1.1.083-2.1.083-3.1z" class="cls-1" data-name="Path 91" transform="translate(.1 -3)"/>
                <path id="Path_92" d="M9.1 3.1v10.1c0 .7-.5 1.1-1.1.9a.85.85 0 0 1-.7-.7V3.1l-.3.3-1.5 1.5a.854.854 0 0 1-1.3 0 1.051 1.051 0 0 1 0-1.3L7.5.3a.854.854 0 0 1 1.3 0l3.3 3.3a.854.854 0 0 1 0 1.3.854.854 0 0 1-1.3 0L9.3 3.4c0-.1-.1-.2-.2-.3z" class="cls-1" data-name="Path 92" transform="translate(-1.313)"/>
            </g>
        </g>
    </g>
</svg>
