<svg xmlns="http://www.w3.org/2000/svg" viewBox="0 0 25 25">
    <defs>
        <style>
            .cls-1{fill:#ffffff}
        </style>
    </defs>
    <path id="Path_127" d="M12.5 0A12.5 12.5 0 1 0 25 12.5 12.5 12.5 0 0 0 12.5 0zm6.9 18.7H5.5v-.6a1.382 1.382 0 0 1 .6-1.1c.5-.3.9-.6 1.4-.9.8-.4 1.6-.6 2.4-1a1.267 1.267 0 0 0 .6-1.8 6.117 6.117 0 0 1-.5-1.2c0-.1 0-.2-.2-.3-.1 0-.1-.2-.2-.3l-.3-.9c-.1-.3-.1-.4.1-.5 0-.6-.1-1.2-.1-1.7A2.063 2.063 0 0 1 11 6.3c.2 0 .3-.1.5-.1h1a2.215 2.215 0 0 1 1.9 1.3l.1.1a.634.634 0 0 1 .5.6 2.2 2.2 0 0 1 .1.8c0 .4-.1.7-.1 1.1.2 0 .3.2.3.4 0 .1-.1.3-.1.4 0 .2-.1.4-.1.6a.366.366 0 0 1-.4.4 3.33 3.33 0 0 1-.5 1.5 1.31 1.31 0 0 0 .5 1.8c.1.1.3.1.4.2a23.579 23.579 0 0 1 2.8 1.2c.6.4 1.2.8 1.2 1.6a.544.544 0 0 1 .3.5z" class="cls-1" data-name="Path 127"/>
</svg>
