<svg xmlns="http://www.w3.org/2000/svg" viewBox="0 0 25 25">
    <defs>
        <style>
            .cls-1{fill:#6c6e7f}
        </style>
    </defs>
    <path id="Path_130" d="M12.5 0A12.5 12.5 0 1 0 25 12.5 12.5 12.5 0 0 0 12.5 0zm4.375 7.875c-.125.167-.25.333-.389.486l-1.639 1.931-1.958-2.417zm-2.514 3.056h-4.069c.694-.819 1.361-1.625 2.056-2.458.68.819 1.333 1.627 2.013 2.458zm-2.528-3.056c-.681.806-1.361 1.611-2.042 2.431-.6-.819-1.181-1.625-1.778-2.431zM7.444 8.4c.611.847 1.222 1.681 1.833 2.528h-3.93c.709-.845 1.389-1.678 2.097-2.528zm-2.027 3.336h3.555c.083 0 .139.014.167.111.778 2.042 1.556 4.069 2.333 6.111a.186.186 0 0 1 .014.125 2612.608 2612.608 0 0 0-6.069-6.347zm4.514 0h5.264c-.889 2.236-1.778 4.472-2.694 6.736-.862-2.264-1.709-4.486-2.57-6.736zm3.556 6.458c-.014 0-.014-.014-.028-.014.153-.361.292-.736.444-1.1.694-1.736 1.389-3.472 2.083-5.222a.182.182 0 0 1 .194-.139h3.4q-3.059 3.274-6.094 6.475zm1.847-7.264c.736-.861 1.444-1.708 2.181-2.569.708.861 1.417 1.708 2.139 2.569z" class="cls-1" data-name="Path 130"/>
</svg>
