<svg xmlns="http://www.w3.org/2000/svg" viewBox="0 0 37.8 25.21">
    <defs>
        <style>
            .cls-1{fill:#35373f}
        </style>
    </defs>
    <g id="HeCTxP.tif_1_" transform="translate(-.1 -.021)">
        <g id="Group_41" data-name="Group 41">
            <g id="Group_35" data-name="Group 35">
                <path id="Path_33" d="M9.5 14.2c-.8.3-1 1.1-1.3 2a8.245 8.245 0 0 1-.7-3.1.955.955 0 0 0-1.3.4C5.4 15 4 15.2 2.5 15.4a3.079 3.079 0 0 1-1.3-.3c-.2-.1-.3-.5-.4-.7-.2-.4-.4-.9-.6-1.4a.9.9 0 0 1-.1-.5 4.817 4.817 0 0 1 2.2 1.6 2.787 2.787 0 0 1 .1 1H3a4.135 4.135 0 0 0 2.8-2 3.006 3.006 0 0 1 1.6-1.3 8.512 8.512 0 0 0 2.7-1.8c1.3-1 2.5-2 3.9-2.9a13.263 13.263 0 0 0 2.7-2.6A15.561 15.561 0 0 1 22.2.4a5 5 0 0 1 3.8 0 25.136 25.136 0 0 1 5.7 2.8 8.415 8.415 0 0 1 2.2 2.4c.2.4.5.5.8.7a17.377 17.377 0 0 1 1.9 1 2.675 2.675 0 0 1 1.3 2.1 3.317 3.317 0 0 0-3.2-1.7l.3.3c.5.4 1.1.7 1.6 1.1a3.8 3.8 0 0 1 1.3 3 3.222 3.222 0 0 0-3.2-2.5 4.331 4.331 0 0 0-.1.5 4.557 4.557 0 0 1-1.7 2.2 14.622 14.622 0 0 0-1.9 1.6c-.4.4-.8.4-1.1-.1a1.255 1.255 0 0 0-1.1-.6c-.2 0-.3-.1-.6-.1l.3-.6a2.126 2.126 0 0 0 .1-1.9 3.572 3.572 0 0 1-.2-2.5h-.1c-.1.5-.2.9-.3 1.4-.2-.2-.3-.4-.5-.5h-.1a.758.758 0 0 1 .2.4 3.7 3.7 0 0 1 .2 3.8c-.3.6-.6 1.1-.9 1.7a1.218 1.218 0 0 1-1.2.6 1.47 1.47 0 0 0-1.4.5 2.715 2.715 0 0 1-1.7.6 2.862 2.862 0 0 1 .4-2.4c.1-.2.5-.2.7-.2.4 0 .8.1 1.1-.1a2.445 2.445 0 0 0 .9-1.1 6.373 6.373 0 0 0 .2-.7 4.2 4.2 0 0 1-2.1.6 12 12 0 0 1-2-.3 4.756 4.756 0 0 0 2.3.7 16.126 16.126 0 0 1-5.3 1.5 5.89 5.89 0 0 0-3.6 1.1c.2-.8.3-1.5.5-2.3h-.1c-.1.3-.1.6-.2.8a5.947 5.947 0 0 1-3 3.9c-.9.5-1.9 1-2.8 1.4a6.07 6.07 0 0 0-1 .7 1.488 1.488 0 0 0-.7 1.5c0 .3-.1.6-.1.9s.1.7.5.7c.3 0 .6.7.7 1.2 0 .4-.3.5-.6.5a1.718 1.718 0 0 1-1.7 0 .67.67 0 0 1-.3-.8c.1-.4.1-.7-.3-.9s-.5-.5-.2-1a5.528 5.528 0 0 0 .7-2.5 2.406 2.406 0 0 1 1.3-2.2 2.177 2.177 0 0 0 .5-.8l.3-1.2a7.522 7.522 0 0 1 .8-1.4zm1.3-4.3c2.2-.6 3.6-1.4 4.1-2.3-.8.5-1.7 1-2.7 1.6l-.1-.1a2.7 2.7 0 0 0 .8-.7l-.1-.1a23.271 23.271 0 0 0-2 1.6zm20.1-6.7A16.95 16.95 0 0 0 25 .7a4.212 4.212 0 0 0-3.3.3c-1 .6-2 1.3-3 1.9a6.47 6.47 0 0 0-.9.8 18.887 18.887 0 0 1 5.1-2.6c-.1.6-.2 1.2-.3 1.7h.1c.2-.6.4-1.1.6-1.7h.1a2.507 2.507 0 0 0 1.3 2 6.47 6.47 0 0 1 .8.9.6.6 0 0 0-.1-.4 4.44 4.44 0 0 0-.8-1.1 1.433 1.433 0 0 1-.5-1.1c0-.2.1-.4.4-.3a17.983 17.983 0 0 1 2.2.6c1.4.4 2.8 1 4.2 1.5zM30.2 14a19.2 19.2 0 0 1 1.5-1.4 7.1 7.1 0 0 1 1.4-1 3.6 3.6 0 0 0 1.3-2.1c-.5-.3-1-.6-1.3-.8l-.6 1.2h.1c.2-.2.3-.4.5-.6a1.385 1.385 0 0 1-.6 2.1 3.346 3.346 0 0 0-1.5 1.4c-.3.5-.4.5-1 .3a2.92 2.92 0 0 0 .2.9zm6.9-3.9a3.147 3.147 0 0 0-1.7-1.3 14 14 0 0 1-1.6-1 1.085 1.085 0 0 1-.5-1.1c.1-.3 0-.5-.2-.5a.55.55 0 0 0-.5.3c-.2.4 0 .7.2 1.1A3.678 3.678 0 0 0 35 9.1a4.133 4.133 0 0 1 2.1 1zm-9.4 1.8h.1c.1-.3.1-.7.2-1 0-.7-.1-.9-.8-1a3.936 3.936 0 0 1-3-1.6 1.622 1.622 0 0 0-1.7-.7 2.239 2.239 0 0 1 1.5.8c.4.5.7 1 1.1 1.5h-.4a2.588 2.588 0 0 0 1.9.3c.8-.1 1.1.2 1.2 1a1.7 1.7 0 0 0-.1.7zm-4.9 2.8c.3-.2.7-.5 1-.7-.5 0-.9.1-1 .7z" class="cls-1" data-name="Path 33"/>
            </g>
            <g id="Group_36" data-name="Group 36">
                <path id="Path_34" d="M13 18.2a5.2 5.2 0 0 0 1.8-2.1c.3-.5.7-.7 1.2-.4a1.483 1.483 0 0 0 .7.1 1.165 1.165 0 0 1 1.4.7 4.811 4.811 0 0 0 .9 1.1c.5.4.4.7-.1 1-.2.2-.5.2-.8.4-.4.2-.6 0-.6-.4-.1-.3 0-.6-.1-.9 0-.5-.1-.6-.6-.4-1.2.3-2.3.6-3.5.9z" class="cls-1" data-name="Path 34"/>
            </g>
            <g id="Group_37" data-name="Group 37">
                <path id="Path_35" d="M28 17.5a2.653 2.653 0 0 1-1.3-1.7.758.758 0 0 1 .2-.4 2.453 2.453 0 0 0 1.1-1.8c.8-.2 1.1 0 1.6.9a1.965 1.965 0 0 0-.9 1.7 3.293 3.293 0 0 1-.7 1.3z" class="cls-1" data-name="Path 35"/>
            </g>
        </g>
    </g>
</svg>
