<svg xmlns="http://www.w3.org/2000/svg" viewBox="0 0 18.365 18">
    <defs>
        <style>
            .cls-1{fill:#fff}
        </style>
    </defs>
    <path id="Path_134" d="M18.243 2.189A1.935 1.935 0 0 0 16.054 0H2.189A1.935 1.935 0 0 0 0 2.189v15.689C0 18 0 18 .122 18h.243l.851-.851 2.311-2.311c.243-.243.365-.243.73-.243h11.8a2.059 2.059 0 0 0 2.311-2.311c-.125-3.284-.125-6.689-.125-10.095zm-6.2 5.838V6.689h1.338v1.338zM6.2 6.689v1.338H4.865V6.689zm3.649 0v1.338H8.392V6.689z" class="cls-1" data-name="Path 134"/>
</svg>
