<svg xmlns="http://www.w3.org/2000/svg" id="JtKv0h.tif_1_" viewBox="0 0 25 25">
    <defs>
        <style>
            .cls-1{fill:#6c6e7f}
        </style>
    </defs>
    <g id="Group_136" data-name="Group 136">
        <path id="Path_126" d="M0 12.5A12.5 12.5 0 1 1 12.5 25 12.5 12.5 0 0 1 0 12.5zm7.8.4v4.5a.632.632 0 0 0 .7.7h2.2v-3.3c0-.7.3-1 1-1h1.6a.9.9 0 0 1 1 1v3.3h2.1c.5 0 .7-.2.7-.7v-4.3h.8c.2 0 .4 0 .4-.2.1-.2 0-.3-.1-.5l-5.5-5.5c-.2-.2-.4-.2-.7 0l-5.4 5.4a.44.44 0 0 0-.1.5c.1.2.2.3.4.3a1.826 1.826 0 0 1 .9-.2z" class="cls-1" data-name="Path 126"/>
    </g>
</svg>
