<svg xmlns="http://www.w3.org/2000/svg" viewBox="0 0 25 25">
    <defs>
        <style>
            .cls-1{fill:#6c6e7f}
        </style>
    </defs>
    <path id="Path_133" d="M12.5 0A12.5 12.5 0 1 0 25 12.5 12.5 12.5 0 0 0 12.5 0zm-1.7 17.6H8.7a2.293 2.293 0 0 1-2.4-1.9V9.3a2.256 2.256 0 0 1 2.2-1.8h2.6a.265.265 0 0 1 .3.3v.4c0 .3-.1.3-.4.3H8.6a1.208 1.208 0 0 0-1.3 1.3v5.5a1.208 1.208 0 0 0 1.3 1.3h2.3c.4 0 .4.1.4.4.1.6 0 .6-.5.6zm8-5a6.47 6.47 0 0 0-.8.9l-3.6 3.6a.52.52 0 0 1-.4.2.5.5 0 0 1-.6-.5v-2.2H10a.53.53 0 0 1-.6-.6v-2.9a.53.53 0 0 1 .6-.6h3.4V8.3a.6.6 0 0 1 .1-.4c.2-.3.5-.3.8 0l2.9 2.9a11.408 11.408 0 0 1 1.1 1.1 2.181 2.181 0 0 1 .4.5.31.31 0 0 1 .1.2z" class="cls-1" data-name="Path 133"/>
</svg>
