<svg xmlns="http://www.w3.org/2000/svg" id="Group_137" data-name="Group 137" viewBox="0 0 25 25">
    <defs>
        <style>
            .cls-1{fill:#ffffff}
        </style>
    </defs>
    <path id="Path_128" d="M11.3 13.7l-1.4-1.4-.8.8 2.2 2.2 4.5-4.5-.8-.8c-1.2 1.2-2.4 2.5-3.7 3.7z" class="cls-1" data-name="Path 128"/>
    <path id="Path_129" d="M12.5 0A12.5 12.5 0 1 0 25 12.5 12.5 12.5 0 0 0 12.5 0zm5.1 12.3v.1a6.937 6.937 0 0 1-.8 2.8 6.342 6.342 0 0 1-3.7 3.3c-.2.1-.4.1-.6.2h-.1a.1.1 0 0 1-.1-.1c-.4-.2-.8-.3-1.2-.5A6.872 6.872 0 0 1 7.5 13a2.2 2.2 0 0 1-.1-.8V8.4h.1c1.6-.7 3.2-1.4 4.9-2.2h.3c1.6.7 3.2 1.4 4.9 2.2h.1c-.1 1.4-.1 2.6-.1 3.9z" class="cls-1" data-name="Path 129"/>
</svg>
