<svg xmlns="http://www.w3.org/2000/svg" id="dmfVcs.tif_1_" viewBox="0 0 25 25">
    <defs>
        <style>
            .cls-1{fill:#6c6e7f}
        </style>
    </defs>
    <g id="Group_138" data-name="Group 138">
        <path id="Path_131" d="M0 12.5A12.5 12.5 0 1 1 12.5 25 12.5 12.5 0 0 1 0 12.5zm18.7 4.6c0-.6-.4-1-1.1-1.2a.51.51 0 0 1-.4-.5v-4.5a3.21 3.21 0 0 0-2.3-3.1l-.9-.3a.634.634 0 0 1-.5-.6c-.1-.3-.2-.5-.3-.8a.708.708 0 0 0-1.4 0c-.1.2-.2.5-.3.7a.9.9 0 0 1-.6.6c-.2.1-.5.1-.7.2A3.4 3.4 0 0 0 8 10.3a5.7 5.7 0 0 0-.1 1.3v3.6c0 .6-.1.6-.6.8a.758.758 0 0 0-.4.2 1.149 1.149 0 0 0-.6.9zm-7.8.9a1.557 1.557 0 0 0 3.1 0z" class="cls-1" data-name="Path 131"/>
    </g>
</svg>
