<svg xmlns="http://www.w3.org/2000/svg" viewBox="0 0 26.999 27.002">
    <defs>
        <style>
            .cls-1{fill:#6c6e7f}
        </style>
    </defs>
    <g id="noun_hand_shake_662135" data-name="noun_hand shake_662135" transform="translate(-34 38.019)">
        <path id="Subtraction_4" d="M2856.5-8201.017a13.412 13.412 0 0 1-9.547-3.954 13.413 13.413 0 0 1-3.954-9.547 13.413 13.413 0 0 1 3.954-9.547 13.412 13.412 0 0 1 9.547-3.954 13.41 13.41 0 0 1 9.545 3.954 13.413 13.413 0 0 1 3.954 9.547 13.413 13.413 0 0 1-3.954 9.547 13.409 13.409 0 0 1-9.545 3.954zm-2.722-12.288a1.19 1.19 0 0 1 1.066.747.309.309 0 0 0 .2.165 1.24 1.24 0 0 1 .855.561 1.081 1.081 0 0 1 .128.87c-.043.159-.081.32-.117.477v.01l-.029.123a.233.233 0 0 0 .114.293c.184.111.36.242.53.368h.007c.066.049.132.1.2.146a.638.638 0 0 0 .366.13.51.51 0 0 0 .485-.429.335.335 0 0 0-.161-.424 6.163 6.163 0 0 1-.508-.367l-.01-.008c-.109-.086-.2-.155-.287-.22a.153.153 0 0 1-.066-.169.127.127 0 0 1 .127-.085.235.235 0 0 1 .092.021.373.373 0 0 1 .064.041l.034.024c.5.367.936.678 1.317.95a.483.483 0 0 0 .281.1.53.53 0 0 0 .415-.242.484.484 0 0 0 .114-.359.461.461 0 0 0-.205-.3q-.491-.362-.982-.721l-.256-.187-.255-.187-.029-.02-.02-.014c-.07-.047-.139-.094-.15-.159a.146.146 0 0 1 .035-.111.137.137 0 0 1 .11-.067.311.311 0 0 1 .174.095l.01.008a142.545 142.545 0 0 1 1.913 1.381l.035.026a.522.522 0 0 0 .307.146.338.338 0 0 0 .151-.037.636.636 0 0 0 .4-.558.4.4 0 0 0-.136-.289c-.537-.405-1.093-.8-1.617-1.175-.078-.057-.149-.113-.157-.181a.149.149 0 0 1 .045-.115c.008-.011.028-.016.057-.016a.475.475 0 0 1 .232.071c.74.523 1.4 1 2.026 1.467a.365.365 0 0 0 .22.083.428.428 0 0 0 .17-.04.649.649 0 0 0 .4-.521.7.7 0 0 0-.3-.642l-3.51-2.52-.018-.014a8.106 8.106 0 0 0-2.223-1.391.541.541 0 0 0-.175-.027.493.493 0 0 0-.218.046c-.493.251-1 .534-1.411.761l-.245.136a1.357 1.357 0 0 1-.656.172 1.4 1.4 0 0 1-1.073-.517 1.358 1.358 0 0 1 .012-1.658c.027-.033.051-.068.078-.106l.009-.014.047-.068h-.091a.877.877 0 0 1-.126-.01.8.8 0 0 0-.15-.017c-.21 0-.347.117-.432.367-.147.442-.308.89-.464 1.323v.013l-.02.056c-.1.266-.194.54-.289.812a6.625 6.625 0 0 0-.2.878l-.076.732v.159c0 .165 0 .32.007.476 0 .045.054.1.093.119a.017.017 0 0 0 .01 0 .185.185 0 0 0 .1-.061c.022-.024.045-.052.068-.079l.017-.021a1.872 1.872 0 0 1 .2-.212.942.942 0 0 1 .615-.217 1.215 1.215 0 0 1 .483.1l.027.019h.005c.115.08.167.116.238.116a.916.916 0 0 0 .256-.066l.022-.008a1.134 1.134 0 0 1 .363-.062 1.088 1.088 0 0 1 .575.171.367.367 0 0 0 .2.068.319.319 0 0 0 .144-.037.91.91 0 0 1 .414-.074zm.2 3.132l.031.1a1.348 1.348 0 0 0 .066.2.683.683 0 0 0 .591.4.108.108 0 0 0 .025 0 .683.683 0 0 0 .6-.458c.116-.446.206-.846.277-1.223a.623.623 0 0 0-.136-.511.577.577 0 0 0-.44-.211h-.031a1.431 1.431 0 0 0-.426.111 1.95 1.95 0 0 1-.163.058c0-.046.013-.1.022-.149a.925.925 0 0 0 .012-.412.932.932 0 0 0-.382-.487.458.458 0 0 0-.226-.049.816.816 0 0 0-.3.06.886.886 0 0 0-.289.241l-.017.019c-.033.035-.066.071-.1.1a.67.67 0 0 0-.58-.556.737.737 0 0 0-.092-.006.685.685 0 0 0-.614.408 1.277 1.277 0 0 1-.043-.069l-.017-.027a.687.687 0 0 0-.59-.418.72.72 0 0 0-.261.053.657.657 0 0 0-.4.838c.015.065.03.131.044.2l.005.023c.04.176.081.358.128.535a.63.63 0 0 0 .607.507.612.612 0 0 0 .1-.009.529.529 0 0 1 .072-.007c.1 0 .158.051.226.149a.634.634 0 0 0 .519.283.689.689 0 0 0 .41-.142l.116-.085.027-.02.043-.031a.641.641 0 0 0 .322.76.634.634 0 0 0 .309.087.828.828 0 0 0 .551-.264zm-4.117-8.442a.416.416 0 0 0-.393.323l-.46 1.465q-.5 1.578-.99 3.156a.426.426 0 0 0 .032.346.44.44 0 0 0 .292.21c.131.029.27.057.382.078l.084.017.673.128a12.229 12.229 0 0 1 1.359-5.282c-.1-.048-.188-.1-.278-.145a6.1 6.1 0 0 0-.5-.249.491.491 0 0 0-.197-.047zm13.247.5a.634.634 0 0 0-.151.02c-.2.05-.412.1-.591.138-.26.059-.537.122-.819.194a7.012 7.012 0 0 1 1.344 4.793h.454c.311 0 .474-.043.565-.147s.108-.269.067-.557c-.057-.41-.1-.829-.144-1.2l-.016-.144-.03-.261-.052-.457-.03-.261v-.027c-.063-.563-.129-1.145-.2-1.719a.382.382 0 0 0-.394-.372zm-7.858.978a.124.124 0 0 1 .054.01l.227.107.077.036.016.008a12.889 12.889 0 0 1 1.221.63c.307.187.6.405.884.616l.01.008c.148.111.32.239.492.36l2.4 1.73c.049.035.1.068.148.1a1.73 1.73 0 0 1 .312.235.892.892 0 0 0 .657.306 1.3 1.3 0 0 0 .45-.093c.19-.071.243-.144.227-.311s-.025-.317-.038-.493v-.006a10.959 10.959 0 0 0-.125-1.173 5.043 5.043 0 0 0-.9-2.11.265.265 0 0 0-.229-.136.578.578 0 0 0-.081.008 9.741 9.741 0 0 1-1.15.115h-.054a1.417 1.417 0 0 1-.557-.1l-.447-.2h-.01c-.927-.405-1.886-.825-2.8-1.286a1.925 1.925 0 0 0-.864-.238 1.549 1.549 0 0 0-.85.275c-.431.277-.9.523-1.317.74l-.081.043c-.206.107-.419.219-.625.334a.966.966 0 0 0-.511.742.9.9 0 0 0 .308.786.834.834 0 0 0 .567.21 1.266 1.266 0 0 0 .626-.184c.592-.345 1.2-.687 1.77-1.008a.475.475 0 0 1 .196-.062z" class="cls-1" data-name="Subtraction 4" transform="translate(-2809 8190)"/>
    </g>
</svg>
