<svg xmlns="http://www.w3.org/2000/svg" viewBox="0 0 25 25">
    <defs>
        <style>
            .cls-1{fill:#6c6e7f}
        </style>
    </defs>
    <path id="Path_132" d="M12.5 0A12.5 12.5 0 1 0 25 12.5 12.5 12.5 0 0 0 12.5 0zm6.3 12.3a.749.749 0 0 1-.1.5 1.991 1.991 0 0 1-.8 1.2c0 .2-.1.4-.1.6a5.119 5.119 0 0 1-1 2.1 3.126 3.126 0 0 1-1.1.9.367.367 0 0 1-.3.1h-1c0 .1-.1.1-.1.2a1.456 1.456 0 0 1-.9.6h-.7a2.044 2.044 0 0 1-.9-.5.967.967 0 0 1 0-1.4 1.234 1.234 0 0 1 .8-.4 1.645 1.645 0 0 1 1 .1 1.344 1.344 0 0 1 .7.6v.1h1c.2-.1.4-.3.6-.4a4.15 4.15 0 0 0 1.2-2 .367.367 0 0 1 .1-.3v-.1h-.5c-.2-.1-.3-.2-.3-.4v-3.4c0-.3.1-.4.4-.5a.349.349 0 0 0-.1-.2 4.177 4.177 0 0 0-1.1-1.5 3.6 3.6 0 0 0-2.1-1.1 4.869 4.869 0 0 0-1.2-.1 4.589 4.589 0 0 0-2.5 1 5.223 5.223 0 0 0-1.4 1.9c.1 0 .1.1.2.1a.52.52 0 0 1 .2.4v3.4a.472.472 0 0 1-.5.5 1.8 1.8 0 0 1-1.6-.9 1.613 1.613 0 0 1-.3-.9V12a.6.6 0 0 1 .1-.4 1.964 1.964 0 0 1 .9-1.3c0-.1.1-.2.1-.3a5.768 5.768 0 0 1 1.8-2.5 5.63 5.63 0 0 1 3-1.2h.7a.9.9 0 0 1 .5.1 7.366 7.366 0 0 1 1.4.4A6.524 6.524 0 0 1 17 8.4a4.725 4.725 0 0 1 1 2v.1c.1.1.2.2.3.2a2.232 2.232 0 0 1 .6 1.3v.3c-.1-.1-.1 0-.1 0z" class="cls-1" data-name="Path 132"/>
</svg>
