<svg xmlns="http://www.w3.org/2000/svg" viewBox="0 0 25 25">
    <defs>
        <style>
            .cls-1{fill:#fff}
        </style>
    </defs>
    <path id="Subtraction_2" d="M2844.5-7977a12.417 12.417 0 0 1-8.838-3.662 12.422 12.422 0 0 1-3.661-8.84 12.417 12.417 0 0 1 3.661-8.838 12.419 12.419 0 0 1 8.838-3.66 12.422 12.422 0 0 1 8.84 3.661 12.416 12.416 0 0 1 3.66 8.839 12.421 12.421 0 0 1-3.661 8.84 12.42 12.42 0 0 1-8.839 3.66zm3.5-9.647v2.852l3.707-3.708-3.707-3.707v2.852h-5.436v1.711zm-6.607-7.187l-3.707 3.705 3.707 3.707v-2.852h5.438v-1.709h-5.438v-2.852z" class="cls-1" data-name="Subtraction 2" transform="translate(-2832 8002)"/>
</svg>
