<svg xmlns="http://www.w3.org/2000/svg" viewBox="0 0 17.373 18">
    <defs>
        <style>
            .cls-1{fill:#a1a6bd}
        </style>
    </defs>
    <g id="Ri1Jo6.tif_1_">
        <g id="Group_59" data-name="Group 59">
            <path id="Path_70" d="M.526 17.911c-.439-.179-.526-.448-.526-.9a8.98 8.98 0 0 1 5.439-8.235c.088 0 .088 0 .175-.09A5.145 5.145 0 0 1 4.036 4.03a4.814 4.814 0 0 1 8.334-2.418 4.987 4.987 0 0 1-.439 7.075h.088a6.165 6.165 0 0 1 2.018 1.343.844.844 0 0 1 .439.9.565.565 0 0 1-.439.537.536.536 0 0 1-.614-.179 7.33 7.33 0 0 0-4.211-1.7 7.214 7.214 0 0 0-3.6.716 7.768 7.768 0 0 0-4.387 6.358v.627A.82.82 0 0 1 .877 18a.652.652 0 0 0-.351-.089zm7.9-9.94c2.281 0 3.773-1.522 3.685-3.4a3.1 3.1 0 0 0-1.053-2.418 3.412 3.412 0 0 0-5 .806A3.28 3.28 0 0 0 6.4 7.075a3.271 3.271 0 0 0 2.022.895z" class="cls-1" data-name="Path 70"/>
            <path id="Path_71" d="M19.2 15.2c-.2.6-.4.8-1 .8h-5.3a.749.749 0 0 1-.5-.1.792.792 0 0 1-.5-.8.661.661 0 0 1 .6-.7h5.8a.9.9 0 0 1 1 .7z" class="cls-1" data-name="Path 71" transform="translate(-2.027 -1.635)"/>
            <path id="Path_72" d="M19.2 19.2a.76.76 0 0 1-.8.6H13a1.268 1.268 0 0 1-.6-.1.666.666 0 0 1-.5-.7.752.752 0 0 1 .5-.7 1.268 1.268 0 0 1 .6-.1h5.7a.85.85 0 0 1 .7.7z" class="cls-1" data-name="Path 72" transform="translate(-2.027 -2.1)"/>
        </g>
    </g>
</svg>
